<svg width="152" height="160" viewBox="0 0 152 160" fill="none" xmlns="http://www.w3.org/2000/svg">
<path d="M63.25 50C63.25 51.8333 62.8333 53.75 62 55.75C59.75 61.0833 55.625 64.875 49.625 67.125C53.2083 67.7917 56.375 68.9167 59.125 70.5C65.0417 74.1667 68 79.3333 68 86C68 90.25 66.7083 94.1667 64.125 97.75C59.125 104.583 51.25 108 40.5 108H5V104.75H15V36.25H5V33H40.125C45.625 33 50.3333 33.9583 54.25 35.875C60.25 38.9583 63.25 43.6667 63.25 50ZM37.125 36.25H25.75V65.625H36.875C40.2083 65.625 43.125 64.8333 45.625 63.25C49.875 60.5 52 56.4167 52 51C52 49.8333 51.9167 48.7083 51.75 47.625C50.5833 40.0417 45.7083 36.25 37.125 36.25ZM39.25 69H25.75V104.75H39.875C43.7083 104.75 47 103.583 49.75 101.25C53.9167 97.6667 56 92.6667 56 86.25C56 83.5 55.5 80.9583 54.5 78.625C51.9167 72.2083 46.8333 69 39.25 69Z" fill="black"/>
<path d="M87.625 160H57V156.75H67V88.25H57V85H87.625V88.25H77.75V122L114.375 88.25H104.375V85H126.875C126.875 85.4167 126.833 85.8333 126.75 86.25C126.5 87.5833 125.458 88.25 123.625 88.25C122.792 88.25 122 88.3333 121.25 88.5C119.667 88.9167 117.333 90.5833 114.25 93.5L92 114.25L124.625 156.75H128C128.417 156.75 128.833 156.792 129.25 156.875C130.583 157.125 131.25 158.167 131.25 160H113.875L84.25 121.5L77.75 127.625V156.75H84.375C84.7917 156.75 85.2083 156.792 85.625 156.875C86.9583 157.125 87.625 158.167 87.625 160Z" fill="black"/>
<path d="M78.5625 57.375C77.4792 57.375 76.4583 57.625 75.5 58.125C72.5833 59.5833 71.0208 62.7083 70.8125 67.5L77.4375 67.6875C79.3542 67.7292 80.8333 67.6458 81.875 67.4375C83.875 66.9792 84.875 65.7083 84.875 63.625C84.875 62.7083 84.7083 61.8542 84.375 61.0625C83.4167 58.6042 81.4792 57.375 78.5625 57.375ZM89.4375 77C89.1875 77.5833 88.8958 78.1667 88.5625 78.75C86.4375 82 83.125 83.625 78.625 83.625C75.7917 83.625 73.2708 82.8958 71.0625 81.4375C67.3542 78.9375 65.5 75.1042 65.5 69.9375C65.5 67.1042 66.0833 64.5625 67.25 62.3125C69.5 57.9792 73.2292 55.8125 78.4375 55.8125C81.1042 55.8125 83.4583 56.4167 85.5 57.625C88.375 59.2917 89.8125 61.5417 89.8125 64.375C89.8125 65.9167 89.25 67.1042 88.125 67.9375C86.6667 68.9792 83.3958 69.4583 78.3125 69.375L70.8125 69.25C70.8542 71 71.0417 72.6042 71.375 74.0625C72.5 79.2708 75.25 81.875 79.625 81.875C80 81.875 80.3958 81.8542 80.8125 81.8125C84.0625 81.3958 86.4167 79.6042 87.875 76.4375L89.4375 77Z" fill="black"/>
<path d="M146.438 155.625C143.521 155.583 141.812 153.708 141.312 150C140.938 150.875 140.375 151.708 139.625 152.5C137.542 154.583 134.979 155.625 131.938 155.625C130.688 155.625 129.5 155.396 128.375 154.938C125.583 153.771 124.188 151.604 124.188 148.438C124.188 147.521 124.312 146.667 124.562 145.875C125.979 141.792 131.583 139.75 141.375 139.75V135.812C141.25 131.771 139.229 129.625 135.312 129.375C133.646 129.375 132.417 129.896 131.625 130.938C131.417 131.229 131.021 132.146 130.438 133.688C129.979 134.896 129.271 135.5 128.312 135.5C128.104 135.5 127.896 135.479 127.688 135.438C126.479 135.229 125.875 134.479 125.875 133.188C125.875 132.479 126.125 131.771 126.625 131.062C128.208 128.896 131.333 127.812 136 127.812C136.375 127.812 136.75 127.812 137.125 127.812C143.083 128.146 146.062 131.292 146.062 137.25V150.438C146.104 152.521 146.667 153.604 147.75 153.688C149.083 153.646 149.896 152.104 150.188 149.062L151.812 149.125C151.812 149.333 151.792 149.562 151.75 149.812C151.417 153.688 149.646 155.625 146.438 155.625ZM134 153.125C134.917 153.125 135.854 152.917 136.812 152.5C139.229 151.333 140.75 149.312 141.375 146.438V141.438C138.125 141.479 135.646 141.688 133.938 142.062C130.729 142.812 129.125 144.583 129.125 147.375C129.125 148.083 129.188 148.729 129.312 149.312C129.896 151.854 131.458 153.125 134 153.125Z" fill="black"/>
</svg>
